HIERARCHY
ROOT Hips
{
	OFFSET 0.000000 0.000000 0.000000
	CHANNELS 6 Xposition Yposition Zposition Zrotation Yrotation Xrotation 
	JOINT LeftUpLeg_virtual
	{
		OFFSET 0.000000 0.000000 0.000000
		CHANNELS 3 Zrotation Yrotation Xrotation
		JOINT LeftUpLeg
		{
			OFFSET 8.479694 -4.795517 -0.379053
			CHANNELS 3 Zrotation Yrotation Xrotation
			JOINT LeftLeg
			{
				OFFSET 0.485052 -32.551468 0.112863
				CHANNELS 3 Zrotation Yrotation Xrotation
				JOINT LeftFoot
				{
					OFFSET 0.438033 -32.635670 -3.012641
					CHANNELS 3 Zrotation Yrotation Xrotation
					JOINT LeftToeBase
					{
						OFFSET 0.970169 -13.225353 11.864223
						CHANNELS 3 Zrotation Yrotation Xrotation
						End Site
						{
							OFFSET 0.000000 0.000000 0.000000
						}
					}
				}
			}
		}
	}
	JOINT RightUpLeg_virtual
	{
		OFFSET 0.000000 0.000000 0.000000
		CHANNELS 3 Zrotation Yrotation Xrotation
		JOINT RightUpLeg
		{
			OFFSET -8.479694 -4.795517 -0.379053
			CHANNELS 3 Zrotation Yrotation Xrotation
			JOINT RightLeg
			{
				OFFSET -0.484100 -32.551483 0.112903
				CHANNELS 3 Zrotation Yrotation Xrotation
				JOINT RightFoot
				{
					OFFSET -0.438985 -32.635651 -3.012681
					CHANNELS 3 Zrotation Yrotation Xrotation
					JOINT RightToeBase
					{
						OFFSET -0.970169 -13.225354 11.864223
						CHANNELS 3 Zrotation Yrotation Xrotation
						End Site
						{
							OFFSET 0.000000 0.000000 0.000000
						}
					}
				}
			}
		}
	}
	JOINT Spine_virtual
	{
		OFFSET 0.000000 0.000000 0.000000
		CHANNELS 3 Zrotation Yrotation Xrotation
		JOINT Spine
		{
			OFFSET 0.000000 7.722015 1.166203
			CHANNELS 3 Zrotation Yrotation Xrotation
			JOINT Spine1
			{
				OFFSET 0.000000 12.024086 0.248766
				CHANNELS 3 Zrotation Yrotation Xrotation
				JOINT Spine2
				{
					OFFSET -0.000000 11.503036 -0.491240
					CHANNELS 3 Zrotation Yrotation Xrotation
					JOINT Neck_virtual
					{
						OFFSET 0.000000 0.000000 0.000000
						CHANNELS 3 Zrotation Yrotation Xrotation
						JOINT Neck
						{
							OFFSET 0.000000 18.430687 -3.123054
							CHANNELS 3 Zrotation Yrotation Xrotation
							JOINT Head
							{
								OFFSET -0.000000 9.051071 1.034021
								CHANNELS 3 Zrotation Yrotation Xrotation
								End Site
								{
									OFFSET 0.000000 0.000000 0.000000
								}
							}
						}
					}
					JOINT LeftShoulder_virtual
					{
						OFFSET 0.000000 0.000000 0.000000
						CHANNELS 3 Zrotation Yrotation Xrotation
						JOINT LeftShoulder
						{
							OFFSET 6.197824 13.665230 -4.064723
							CHANNELS 3 Zrotation Yrotation Xrotation
							JOINT LeftArm
							{
								OFFSET 7.778132 -0.187073 -1.709282
								CHANNELS 3 Zrotation Yrotation Xrotation
								JOINT LeftForeArm
								{
									OFFSET 21.954697 0.000000 -2.041093
									CHANNELS 3 Zrotation Yrotation Xrotation
									JOINT LeftHand
									{
										OFFSET 22.992908 0.000000 -0.870901
										CHANNELS 3 Zrotation Yrotation Xrotation
										End Site
										{
											OFFSET 0.000000 0.000000 0.000000
										}
									}
								}
							}
						}
					}
					JOINT RightShoulder_virtual
					{
						OFFSET 0.000000 0.000000 0.000000
						CHANNELS 3 Zrotation Yrotation Xrotation
						JOINT RightShoulder
						{
							OFFSET -6.197824 13.665230 -4.064723
							CHANNELS 3 Zrotation Yrotation Xrotation
							JOINT RightArm
							{
								OFFSET -7.778132 -0.187073 -1.709282
								CHANNELS 3 Zrotation Yrotation Xrotation
								JOINT RightForeArm
								{
									OFFSET -21.954697 0.000000 -2.041093
									CHANNELS 3 Zrotation Yrotation Xrotation
									JOINT RightHand
									{
										OFFSET -22.992908 0.000000 -0.870901
										CHANNELS 3 Zrotation Yrotation Xrotation
										End Site
										{
											OFFSET 0.000000 0.000000 0.000000
										}
									}
								}
							}
						}
					}
				}
			}
		}
	}
}
MOTION
Frames: 7
Frame Time: 0.033333
15.400278 81.877655 12.247486 179.919259 5.191345 -179.999882 -5.366372 0.456812 11.277363 5.882984 -1.795600 -25.121793 4.330892 5.150759 28.354883 -4.856963 -4.694453 -8.295992 0.000000 0.000000 0.000000 -1.088816 -0.326754 10.879428 -0.508942 -5.239515 -16.426690 -1.156664 3.091770 24.615863 7.911644 9.442668 -8.965891 0.000000 0.000000 0.000000 1.526288 2.248314 -0.529752 -3.559073 1.585784 -1.115726 1.330964 -3.466358 4.396725 -0.002017 -0.069485 0.030329 1.029823 -2.334085 4.557721 -0.638792 0.724414 -14.362858 0.000000 0.000000 0.000000 2.094715 -1.411717 2.080312 7.475811 -2.373879 -2.715995 -16.113197 10.680055 -35.744562 -7.350797 -21.509058 -2.501277 0.000000 0.000000 0.000000 -1.178515 -0.356478 1.628623 12.426027 -6.457288 -3.320947 16.029211 -14.226397 -42.860684 1.953440 25.771823 -4.424747 0.000000 0.000000 0.000000 
15.641138 81.878990 12.359290 179.935105 4.940042 -179.915160 -5.202706 0.272573 11.198246 5.932129 -1.850403 -25.120170 4.429946 5.100810 28.468287 -4.880440 -4.644731 -8.153905 0.000000 0.000000 0.000000 -0.986577 -0.409111 10.846322 -0.264474 -5.606695 -16.435646 -1.041499 2.960372 24.742922 8.010506 9.608167 -8.932404 0.000000 0.000000 0.000000 1.661251 2.122858 -0.569771 -3.633495 1.420312 -1.004772 1.341636 -3.397958 4.387749 0.019612 0.028478 0.101838 1.016500 -2.349177 4.613305 -0.631439 0.616341 -14.414593 0.000000 0.000000 0.000000 2.090073 -1.390607 2.129186 7.566082 -2.533075 -2.537023 -16.257247 10.597360 -36.097594 -7.291188 -21.507750 -2.578230 0.000000 0.000000 0.000000 -1.203990 -0.309210 1.715898 12.518676 -6.282527 -3.321949 16.099876 -14.274260 -42.925618 2.038063 25.881204 -4.392940 0.000000 0.000000 0.000000 
15.956220 81.908676 12.551756 179.876898 4.619981 -179.969392 -5.117112 0.359542 11.056061 6.134897 -1.977738 -24.964982 4.292641 4.821043 28.241524 -5.045971 -4.678535 -7.844343 0.000000 0.000000 0.000000 -0.867150 -0.385388 10.798748 -0.173295 -5.823313 -16.422408 -1.076434 2.633386 24.852627 7.895552 9.576340 -8.956716 0.000000 0.000000 0.000000 1.783216 2.211480 -0.599767 -3.770856 1.376288 -0.758346 1.373826 -3.393609 4.500318 0.018560 0.032161 0.052986 1.096002 -2.348319 4.641762 -0.596997 0.426322 -14.330292 0.000000 0.000000 0.000000 2.166320 -1.418775 2.126124 7.675078 -2.713742 -2.551050 -16.745191 10.586700 -36.457654 -7.307855 -21.654746 -2.386853 0.000000 0.000000 0.000000 -1.104192 -0.362666 1.725675 12.685252 -6.252346 -3.534908 16.217598 -14.377220 -42.726836 2.137492 26.145903 -4.276583 0.000000 0.000000 0.000000 
16.258209 81.925377 12.798490 179.830712 4.169021 -179.999882 -4.977987 0.448650 10.829471 6.297957 -2.148778 -24.863405 4.119398 4.646778 27.945763 -5.303309 -4.796668 -7.490589 0.000000 0.000000 0.000000 -0.695958 -0.360825 10.724997 -0.081745 -5.834550 -16.538046 -1.122651 2.164575 25.028926 7.740957 9.518970 -9.069305 0.000000 0.000000 0.000000 1.918388 2.267430 -0.558980 -3.955066 1.246591 -0.557775 1.485039 -3.461832 4.550420 0.046159 -0.001891 0.028105 1.166755 -2.372443 4.726743 -0.597554 0.381948 -14.262664 0.000000 0.000000 0.000000 2.288010 -1.401497 2.174843 7.727071 -2.788284 -2.604139 -17.629814 10.744533 -36.776645 -7.292729 -22.015192 -2.400405 0.000000 0.000000 0.000000 -1.049892 -0.309440 1.815980 12.962301 -6.095582 -3.265979 16.450594 -14.465685 -42.619820 2.109939 26.633278 -4.229876 0.000000 0.000000 0.000000 
16.497431 81.944389 13.139506 179.913603 3.782852 -179.981864 -4.739390 0.657899 10.634973 6.451695 -2.255904 -24.892447 3.927331 4.419519 27.603885 -5.512969 -4.929489 -7.011668 0.000000 0.000000 0.000000 -0.433008 -0.277734 10.645266 -0.051408 -5.653367 -16.709054 -1.183370 1.731425 25.185126 7.515827 9.382841 -9.124180 0.000000 0.000000 0.000000 2.152455 2.346195 -0.443155 -4.035730 1.193297 -0.378251 1.559783 -3.479824 4.588738 0.031155 -0.003485 0.019691 1.226226 -2.423831 4.799150 -0.513637 -0.095191 -14.122990 0.000000 0.000000 0.000000 2.384452 -1.421507 2.219851 7.731387 -2.850532 -2.622779 -19.103727 10.890953 -37.101509 -7.243942 -22.649194 -2.298462 0.000000 0.000000 0.000000 -0.966394 -0.331816 1.862802 13.306180 -5.930679 -2.988998 16.748321 -14.638087 -41.923732 1.981614 27.214055 -4.291180 0.000000 0.000000 0.000000 
16.649332 81.962036 13.582361 179.932509 3.437191 -179.900858 -4.543708 0.715767 10.491934 6.529158 -2.453141 -25.126926 3.848093 4.468067 27.255238 -5.627401 -5.105028 -6.472653 0.000000 0.000000 0.000000 -0.189875 -0.233015 10.490074 -0.084271 -5.537116 -16.971367 -1.232555 1.429778 25.307173 7.287018 9.270717 -9.201066 0.000000 0.000000 0.000000 2.416990 2.354845 -0.312870 -4.119413 1.156243 -0.249765 1.629710 -3.497690 4.602871 0.027350 -0.007954 0.033696 1.337565 -2.346882 4.823376 -0.376950 -0.233576 -13.996733 0.000000 0.000000 0.000000 2.429670 -1.414392 2.286275 7.509010 -2.908260 -2.645718 -21.067582 10.918956 -37.271967 -7.249354 -23.524555 -2.211235 0.000000 0.000000 0.000000 -0.900280 -0.359124 1.886942 13.696192 -5.708576 -2.540946 17.048892 -14.919003 -41.119293 1.787381 27.863197 -4.397591 0.000000 0.000000 0.000000 
16.683325 81.977928 14.093448 179.934408 3.330327 -179.965731 -4.422856 0.847323 10.417282 6.493432 -2.493129 -25.393960 3.596943 4.171631 27.030305 -5.434045 -5.119529 -5.927084 0.000000 0.000000 0.000000 -0.032119 -0.332598 10.395441 -0.248799 -5.208932 -17.165215 -1.287803 1.280855 25.358211 7.099581 9.207563 -9.201982 0.000000 0.000000 0.000000 2.653876 2.291324 -0.021951 -4.196458 1.212703 -0.069596 1.688191 -3.433345 4.641844 0.002269 0.026625 0.054181 1.373094 -2.386091 4.874501 -0.281056 -0.656859 -13.821091 0.000000 0.000000 0.000000 2.538185 -1.414590 2.336081 7.145753 -3.004914 -2.814106 -23.404108 10.936334 -36.843881 -7.232177 -24.561965 -2.111519 0.000000 0.000000 0.000000 -0.834455 -0.347856 1.879635 14.154385 -5.526699 -2.260883 17.409684 -15.313492 -39.926496 1.752475 28.452555 -4.294932 0.000000 0.000000 0.000000 
